<svg width="255" height="48" viewBox="0 0 255 48" fill="none" xmlns="http://www.w3.org/2000/svg">
<rect y="0.333344" width="183" height="46.9189" fill="#1D8439"/>
<rect x="184" y="1.33334" width="70" height="44.9189" fill="white" stroke="#1D8439" stroke-width="2"/>
<path d="M15.0312 34.3333H10.2812L10.3125 31.8802H15.0312C16.6562 31.8802 18.0104 31.5417 19.0938 30.8646C20.1771 30.1771 20.9896 29.2188 21.5312 27.9896C22.0833 26.75 22.3594 25.3021 22.3594 23.6458V22.2552C22.3594 20.9531 22.2031 19.7969 21.8906 18.7865C21.5781 17.7656 21.1198 16.9063 20.5156 16.2083C19.9115 15.5 19.1719 14.9636 18.2969 14.599C17.4323 14.2344 16.4375 14.0521 15.3125 14.0521H10.1875V11.5833H15.3125C16.8021 11.5833 18.1615 11.8333 19.3906 12.3333C20.6198 12.8229 21.6771 13.5365 22.5625 14.474C23.4583 15.4011 24.1458 16.5261 24.625 17.849C25.1042 19.1615 25.3438 20.6406 25.3438 22.2865V23.6458C25.3438 25.2917 25.1042 26.7761 24.625 28.099C24.1458 29.4115 23.4531 30.5313 22.5469 31.4583C21.651 32.3854 20.5677 33.099 19.2969 33.599C18.0365 34.0886 16.6146 34.3333 15.0312 34.3333ZM11.8906 11.5833V34.3333H8.875V11.5833H11.8906ZM36.4531 34.6458C35.276 34.6458 34.2083 34.4479 33.25 34.0521C32.3021 33.6458 31.4844 33.0781 30.7969 32.349C30.1198 31.6198 29.599 30.7552 29.2344 29.7552C28.8698 28.7552 28.6875 27.6615 28.6875 26.474V25.8177C28.6875 24.4427 28.8906 23.2188 29.2969 22.1458C29.7031 21.0625 30.2552 20.1458 30.9531 19.3958C31.651 18.6458 32.4427 18.0781 33.3281 17.6927C34.2135 17.3073 35.1302 17.1146 36.0781 17.1146C37.2865 17.1146 38.3281 17.3229 39.2031 17.7396C40.0885 18.1563 40.8125 18.7396 41.375 19.4896C41.9375 20.2292 42.3542 21.1042 42.625 22.1146C42.8958 23.1146 43.0312 24.2083 43.0312 25.3958V26.6927H30.4062V24.3333H40.1406V24.1146C40.099 23.3646 39.9427 22.6354 39.6719 21.9271C39.4115 21.2188 38.9948 20.6354 38.4219 20.1771C37.849 19.7188 37.0677 19.4896 36.0781 19.4896C35.4219 19.4896 34.8177 19.6302 34.2656 19.9115C33.7135 20.1823 33.2396 20.5886 32.8438 21.1302C32.4479 21.6719 32.1406 22.3333 31.9219 23.1146C31.7031 23.8958 31.5938 24.7969 31.5938 25.8177V26.474C31.5938 27.2761 31.7031 28.0313 31.9219 28.7396C32.151 29.4375 32.4792 30.0521 32.9062 30.5833C33.3438 31.1146 33.8698 31.5313 34.4844 31.8333C35.1094 32.1354 35.8177 32.2865 36.6094 32.2865C37.6302 32.2865 38.4948 32.0781 39.2031 31.6615C39.9115 31.2448 40.5312 30.6875 41.0625 29.9896L42.8125 31.3802C42.4479 31.9323 41.9844 32.4583 41.4219 32.9583C40.8594 33.4583 40.1667 33.8646 39.3438 34.1771C38.5312 34.4896 37.5677 34.6458 36.4531 34.6458ZM49.2969 21.0365V34.3333H46.4062V17.4271H49.1406L49.2969 21.0365ZM48.6094 25.2396L47.4062 25.1927C47.4167 24.0365 47.5885 22.9688 47.9219 21.9896C48.2552 21 48.724 20.1406 49.3281 19.4115C49.9323 18.6823 50.651 18.1198 51.4844 17.724C52.3281 17.3177 53.2604 17.1146 54.2812 17.1146C55.1146 17.1146 55.8646 17.2292 56.5312 17.4583C57.1979 17.6771 57.7656 18.0313 58.2344 18.5208C58.7135 19.0104 59.0781 19.6458 59.3281 20.4271C59.5781 21.1979 59.7031 22.1406 59.7031 23.2552V34.3333H56.7969V23.224C56.7969 22.3386 56.6667 21.6302 56.4062 21.099C56.1458 20.5573 55.7656 20.1667 55.2656 19.9271C54.7656 19.6771 54.151 19.5521 53.4219 19.5521C52.7031 19.5521 52.0469 19.7031 51.4531 20.0052C50.8698 20.3073 50.3646 20.724 49.9375 21.2552C49.5208 21.7865 49.1927 22.3958 48.9531 23.0833C48.724 23.7604 48.6094 24.4792 48.6094 25.2396ZM89.2812 23.0052V31.3333C89 31.75 88.5521 32.2188 87.9375 32.7396C87.3229 33.25 86.474 33.6979 85.3906 34.0833C84.3177 34.4583 82.9323 34.6458 81.2344 34.6458C79.849 34.6458 78.5729 34.4063 77.4062 33.9271C76.25 33.4375 75.2448 32.7292 74.3906 31.8021C73.5469 30.8646 72.8906 29.7292 72.4219 28.3958C71.9635 27.0521 71.7344 25.5313 71.7344 23.8333V22.0677C71.7344 20.3698 71.9323 18.8542 72.3281 17.5208C72.7344 16.1875 73.3281 15.0573 74.1094 14.1302C74.8906 13.1927 75.849 12.4844 76.9844 12.0052C78.1198 11.5156 79.4219 11.2708 80.8906 11.2708C82.6302 11.2708 84.0833 11.5729 85.25 12.1771C86.4271 12.7708 87.3438 13.5938 88 14.6458C88.6667 15.6979 89.0938 16.8958 89.2812 18.2396H86.2656C86.1302 17.4167 85.8594 16.6667 85.4531 15.9896C85.0573 15.3125 84.4896 14.7708 83.75 14.3646C83.0104 13.9479 82.0573 13.7396 80.8906 13.7396C79.8385 13.7396 78.9271 13.9323 78.1562 14.3177C77.3854 14.7031 76.75 15.2552 76.25 15.974C75.75 16.6927 75.375 17.5625 75.125 18.5833C74.8854 19.6042 74.7656 20.7552 74.7656 22.0365V23.8333C74.7656 25.1458 74.9167 26.3177 75.2188 27.349C75.5312 28.3802 75.974 29.2604 76.5469 29.9896C77.1198 30.7083 77.8021 31.2552 78.5938 31.6302C79.3958 32.0052 80.2812 32.1927 81.25 32.1927C82.3229 32.1927 83.1927 32.1042 83.8594 31.9271C84.526 31.7396 85.0469 31.5208 85.4219 31.2708C85.7969 31.0104 86.0833 30.7656 86.2812 30.5365V25.4427H81.0156V23.0052H89.2812ZM96.7344 20.0833V34.3333H93.8438V17.4271H96.6562L96.7344 20.0833ZM102.016 17.3333L102 20.0208C101.76 19.9688 101.531 19.9375 101.312 19.9271C101.104 19.9063 100.865 19.8958 100.594 19.8958C99.9271 19.8958 99.3385 20 98.8281 20.2083C98.3177 20.4167 97.8854 20.7083 97.5312 21.0833C97.1771 21.4583 96.8958 21.9063 96.6875 22.4271C96.4896 22.9375 96.3594 23.5 96.2969 24.1146L95.4844 24.5833C95.4844 23.5625 95.5833 22.6042 95.7812 21.7083C95.9896 20.8125 96.3073 20.0208 96.7344 19.3333C97.1615 18.6354 97.7031 18.0938 98.3594 17.7083C99.026 17.3125 99.8177 17.1146 100.734 17.1146C100.943 17.1146 101.182 17.1406 101.453 17.1927C101.724 17.2344 101.911 17.2813 102.016 17.3333ZM117.844 15.4427L107.484 36.4427H105.562L115.922 15.4427H117.844ZM103.922 26.0677V25.7083C103.922 24.4896 104.099 23.3594 104.453 22.3177C104.807 21.2656 105.318 20.3542 105.984 19.5833C106.651 18.8021 107.458 18.1979 108.406 17.7708C109.354 17.3333 110.417 17.1146 111.594 17.1146C112.781 17.1146 113.849 17.3333 114.797 17.7708C115.755 18.1979 116.568 18.8021 117.234 19.5833C117.901 20.3542 118.411 21.2656 118.766 22.3177C119.12 23.3594 119.297 24.4896 119.297 25.7083V26.0677C119.297 27.2865 119.12 28.4167 118.766 29.4583C118.411 30.5 117.901 31.4115 117.234 32.1927C116.568 32.9636 115.76 33.5677 114.812 34.0052C113.875 34.4323 112.812 34.6458 111.625 34.6458C110.438 34.6458 109.37 34.4323 108.422 34.0052C107.474 33.5677 106.661 32.9636 105.984 32.1927C105.318 31.4115 104.807 30.5 104.453 29.4583C104.099 28.4167 103.922 27.2865 103.922 26.0677ZM106.812 25.7083V26.0677C106.812 26.9115 106.911 27.7083 107.109 28.4583C107.307 29.1979 107.604 29.8542 108 30.4271C108.406 31 108.911 31.4531 109.516 31.7865C110.12 32.1094 110.823 32.2708 111.625 32.2708C112.417 32.2708 113.109 32.1094 113.703 31.7865C114.307 31.4531 114.807 31 115.203 30.4271C115.599 29.8542 115.896 29.1979 116.094 28.4583C116.302 27.7083 116.406 26.9115 116.406 26.0677V25.7083C116.406 24.875 116.302 24.0886 116.094 23.349C115.896 22.599 115.594 21.9375 115.188 21.3646C114.792 20.7813 114.292 20.3229 113.688 19.9896C113.094 19.6563 112.396 19.4896 111.594 19.4896C110.802 19.4896 110.104 19.6563 109.5 19.9896C108.906 20.3229 108.406 20.7813 108 21.3646C107.604 21.9375 107.307 22.599 107.109 23.349C106.911 24.0886 106.812 24.875 106.812 25.7083ZM125.734 21.0365V34.3333H122.844V17.4271H125.578L125.734 21.0365ZM125.047 25.2396L123.844 25.1927C123.854 24.0365 124.026 22.9688 124.359 21.9896C124.693 21 125.161 20.1406 125.766 19.4115C126.37 18.6823 127.089 18.1198 127.922 17.724C128.766 17.3177 129.698 17.1146 130.719 17.1146C131.552 17.1146 132.302 17.2292 132.969 17.4583C133.635 17.6771 134.203 18.0313 134.672 18.5208C135.151 19.0104 135.516 19.6458 135.766 20.4271C136.016 21.1979 136.141 22.1406 136.141 23.2552V34.3333H133.234V23.224C133.234 22.3386 133.104 21.6302 132.844 21.099C132.583 20.5573 132.203 20.1667 131.703 19.9271C131.203 19.6771 130.589 19.5521 129.859 19.5521C129.141 19.5521 128.484 19.7031 127.891 20.0052C127.307 20.3073 126.802 20.724 126.375 21.2552C125.958 21.7865 125.63 22.3958 125.391 23.0833C125.161 23.7604 125.047 24.4792 125.047 25.2396ZM143.422 21.0365V34.3333H140.531V17.4271H143.266L143.422 21.0365ZM142.734 25.2396L141.531 25.1927C141.542 24.0365 141.714 22.9688 142.047 21.9896C142.38 21 142.849 20.1406 143.453 19.4115C144.057 18.6823 144.776 18.1198 145.609 17.724C146.453 17.3177 147.385 17.1146 148.406 17.1146C149.24 17.1146 149.99 17.2292 150.656 17.4583C151.323 17.6771 151.891 18.0313 152.359 18.5208C152.839 19.0104 153.203 19.6458 153.453 20.4271C153.703 21.1979 153.828 22.1406 153.828 23.2552V34.3333H150.922V23.224C150.922 22.3386 150.792 21.6302 150.531 21.099C150.271 20.5573 149.891 20.1667 149.391 19.9271C148.891 19.6771 148.276 19.5521 147.547 19.5521C146.828 19.5521 146.172 19.7031 145.578 20.0052C144.995 20.3073 144.49 20.724 144.062 21.2552C143.646 21.7865 143.318 22.3958 143.078 23.0833C142.849 23.7604 142.734 24.4792 142.734 25.2396ZM165.234 34.6458C164.057 34.6458 162.99 34.4479 162.031 34.0521C161.083 33.6458 160.266 33.0781 159.578 32.349C158.901 31.6198 158.38 30.7552 158.016 29.7552C157.651 28.7552 157.469 27.6615 157.469 26.474V25.8177C157.469 24.4427 157.672 23.2188 158.078 22.1458C158.484 21.0625 159.036 20.1458 159.734 19.3958C160.432 18.6458 161.224 18.0781 162.109 17.6927C162.995 17.3073 163.911 17.1146 164.859 17.1146C166.068 17.1146 167.109 17.3229 167.984 17.7396C168.87 18.1563 169.594 18.7396 170.156 19.4896C170.719 20.2292 171.135 21.1042 171.406 22.1146C171.677 23.1146 171.812 24.2083 171.812 25.3958V26.6927H159.188V24.3333H168.922V24.1146C168.88 23.3646 168.724 22.6354 168.453 21.9271C168.193 21.2188 167.776 20.6354 167.203 20.1771C166.63 19.7188 165.849 19.4896 164.859 19.4896C164.203 19.4896 163.599 19.6302 163.047 19.9115C162.495 20.1823 162.021 20.5886 161.625 21.1302C161.229 21.6719 160.922 22.3333 160.703 23.1146C160.484 23.8958 160.375 24.7969 160.375 25.8177V26.474C160.375 27.2761 160.484 28.0313 160.703 28.7396C160.932 29.4375 161.26 30.0521 161.688 30.5833C162.125 31.1146 162.651 31.5313 163.266 31.8333C163.891 32.1354 164.599 32.2865 165.391 32.2865C166.411 32.2865 167.276 32.0781 167.984 31.6615C168.693 31.2448 169.312 30.6875 169.844 29.9896L171.594 31.3802C171.229 31.9323 170.766 32.4583 170.203 32.9583C169.641 33.4583 168.948 33.8646 168.125 34.1771C167.312 34.4896 166.349 34.6458 165.234 34.6458Z" fill="white"/>
<path d="M199.922 13.599L192.391 34.3333H189.312L197.984 11.5833H199.969L199.922 13.599ZM206.234 34.3333L198.688 13.599L198.641 11.5833H200.625L209.328 34.3333H206.234ZM205.844 25.9115V28.3802H193.062V25.9115H205.844ZM216.297 31.724L220.922 17.4271H223.875L217.797 34.3333H215.859L216.297 31.724ZM212.438 17.4271L217.203 31.8021L217.531 34.3333H215.594L209.469 17.4271H212.438ZM229.797 17.4271V34.3333H226.891V17.4271H229.797ZM226.672 12.9427C226.672 12.474 226.812 12.0781 227.094 11.7552C227.385 11.4323 227.812 11.2708 228.375 11.2708C228.927 11.2708 229.349 11.4323 229.641 11.7552C229.943 12.0781 230.094 12.474 230.094 12.9427C230.094 13.3906 229.943 13.7761 229.641 14.099C229.349 14.4115 228.927 14.5677 228.375 14.5677C227.812 14.5677 227.385 14.4115 227.094 14.099C226.812 13.7761 226.672 13.3906 226.672 12.9427ZM244.281 29.849C244.281 29.4323 244.188 29.0469 244 28.6927C243.823 28.3281 243.453 28 242.891 27.7083C242.339 27.4063 241.505 27.1458 240.391 26.9271C239.453 26.7292 238.604 26.4948 237.844 26.224C237.094 25.9531 236.453 25.625 235.922 25.2396C235.401 24.8542 235 24.4011 234.719 23.8802C234.438 23.3594 234.297 22.75 234.297 22.0521C234.297 21.3854 234.443 20.7552 234.734 20.1615C235.036 19.5677 235.458 19.0417 236 18.5833C236.552 18.125 237.214 17.7656 237.984 17.5052C238.755 17.2448 239.615 17.1146 240.562 17.1146C241.917 17.1146 243.073 17.3542 244.031 17.8333C244.99 18.3125 245.724 18.9531 246.234 19.7552C246.745 20.5469 247 21.4271 247 22.3958H244.109C244.109 21.9271 243.969 21.474 243.688 21.0365C243.417 20.5886 243.016 20.2188 242.484 19.9271C241.964 19.6354 241.323 19.4896 240.562 19.4896C239.76 19.4896 239.109 19.6146 238.609 19.8646C238.12 20.1042 237.76 20.4115 237.531 20.7865C237.312 21.1615 237.203 21.5573 237.203 21.974C237.203 22.2865 237.255 22.5677 237.359 22.8177C237.474 23.0573 237.672 23.2813 237.953 23.4896C238.234 23.6875 238.63 23.875 239.141 24.0521C239.651 24.2292 240.302 24.4063 241.094 24.5833C242.479 24.8958 243.62 25.2708 244.516 25.7083C245.411 26.1458 246.078 26.6823 246.516 27.3177C246.953 27.9531 247.172 28.724 247.172 29.6302C247.172 30.3698 247.016 31.0469 246.703 31.6615C246.401 32.2761 245.958 32.8073 245.375 33.2552C244.802 33.6927 244.115 34.0365 243.312 34.2865C242.521 34.5261 241.63 34.6458 240.641 34.6458C239.151 34.6458 237.891 34.3802 236.859 33.849C235.828 33.3177 235.047 32.6302 234.516 31.7865C233.984 30.9427 233.719 30.0521 233.719 29.1146H236.625C236.667 29.9063 236.896 30.5365 237.312 31.0052C237.729 31.4636 238.24 31.7917 238.844 31.9896C239.448 32.1771 240.047 32.2708 240.641 32.2708C241.432 32.2708 242.094 32.1667 242.625 31.9583C243.167 31.75 243.578 31.4636 243.859 31.099C244.141 30.7344 244.281 30.3177 244.281 29.849Z" fill="#1D8439"/>
</svg>
